<?xml version="1.0" encoding="UTF-8" ?>
<!DOCTYPE svg PUBLIC "-//W3C//DTD SVG 1.1//EN" "http://www.w3.org/Graphics/SVG/1.1/DTD/svg11.dtd">
<svg width="1145pt" height="243pt" viewBox="0 0 1145 243" version="1.1" xmlns="http://www.w3.org/2000/svg">
<g id="#ffffffff">
<path fill="#ffffff" opacity="1.00" d=" M 34.21 37.07 C 33.88 28.14 41.89 19.50 50.99 20.04 C 61.69 20.07 72.40 20.01 83.11 20.07 C 87.23 20.29 91.53 20.08 95.41 21.74 C 100.92 24.01 105.63 28.41 107.98 33.91 C 108.68 36.32 109.06 38.82 109.74 41.23 C 110.20 44.46 110.47 47.72 110.43 50.98 C 110.35 74.65 110.48 98.32 110.37 121.99 C 110.02 129.77 111.37 137.46 112.25 145.16 C 113.75 148.00 115.01 151.02 114.77 154.32 C 115.03 154.39 115.56 154.53 115.82 154.60 L 116.14 154.68 C 122.81 173.91 139.48 188.34 157.81 196.22 C 163.44 198.24 169.19 199.99 175.12 200.85 C 184.99 202.28 195.36 202.53 204.97 199.48 C 203.76 201.70 201.64 203.13 199.76 204.71 C 188.29 214.63 174.58 222.09 159.86 225.83 C 156.05 227.04 152.05 227.31 148.18 228.19 C 137.76 229.05 127.24 228.96 116.92 227.18 C 112.63 226.16 108.28 225.33 104.12 223.84 C 103.14 223.50 102.15 223.15 101.17 222.81 C 99.48 222.21 97.81 221.55 96.15 220.87 C 72.79 210.94 53.60 191.89 42.97 168.90 C 39.73 161.60 37.53 153.89 35.83 146.10 C 35.14 141.07 34.13 136.07 34.24 130.97 C 34.17 99.67 34.23 68.37 34.21 37.07 Z" />
<path fill="#ffffff" opacity="1.00" d=" M 159.00 20.92 C 161.61 20.32 164.28 20.03 166.96 20.04 C 180.29 20.03 193.62 20.05 206.95 20.03 C 209.99 20.02 213.05 20.19 216.02 20.88 C 221.98 23.47 226.90 29.25 226.92 35.96 C 227.00 65.99 226.92 96.02 226.96 126.06 C 226.95 129.68 227.05 133.39 225.86 136.87 C 225.16 139.34 224.23 141.74 223.22 144.10 C 217.89 154.25 208.41 162.52 197.14 165.20 C 191.05 166.51 184.88 166.60 178.80 165.23 C 176.81 164.55 174.81 163.90 172.81 163.25 C 159.68 158.25 150.10 145.90 147.81 132.12 C 147.54 130.09 147.30 128.05 147.32 126.00 C 147.36 96.66 147.32 67.32 147.34 37.98 C 147.64 30.64 152.27 23.87 159.00 20.92 Z" />
<path fill="#ffffff" opacity="1.00" d=" M 566.14 47.17 C 573.87 44.97 583.70 48.31 586.31 56.43 C 589.23 64.70 583.74 74.76 574.98 76.23 C 567.13 78.18 557.84 73.98 555.60 65.90 C 552.95 58.07 558.21 49.08 566.14 47.17 Z" />
<path fill="#ffffff" opacity="1.00" d=" M 1058.75 70.56 C 1067.04 70.56 1075.32 70.57 1083.62 70.56 C 1083.64 78.43 1083.62 86.31 1083.63 94.18 C 1093.23 94.18 1102.83 94.19 1112.43 94.18 C 1112.44 100.87 1112.43 107.56 1112.44 114.25 C 1102.84 114.25 1093.24 114.26 1083.64 114.24 C 1083.64 131.82 1083.57 149.40 1083.67 166.97 C 1083.66 172.59 1086.64 178.55 1092.13 180.59 C 1098.85 183.00 1106.74 181.68 1112.46 177.42 C 1114.86 183.37 1117.27 189.33 1119.67 195.29 C 1110.02 202.28 1097.34 203.52 1085.87 201.62 C 1077.62 200.28 1069.55 196.14 1064.76 189.13 C 1060.05 182.42 1058.76 174.00 1058.76 165.98 C 1058.73 148.74 1058.75 131.49 1058.75 114.25 C 1052.89 114.25 1047.04 114.25 1041.18 114.25 C 1041.18 107.56 1041.18 100.87 1041.19 94.19 C 1047.04 94.18 1052.89 94.19 1058.75 94.18 C 1058.74 86.31 1058.75 78.44 1058.75 70.56 Z" />
<path fill="#ffffff" opacity="1.00" d=" M 445.41 107.76 C 453.46 98.28 465.88 93.49 478.10 92.89 C 490.33 92.13 503.51 94.76 512.83 103.19 C 522.30 111.61 526.38 124.50 526.56 136.89 C 526.73 158.25 526.55 179.62 526.66 200.98 C 518.29 201.16 509.93 201.02 501.56 201.06 C 501.56 184.04 501.56 167.02 501.56 150.00 C 501.58 142.23 501.95 134.03 498.40 126.87 C 495.62 120.83 489.61 116.72 483.16 115.51 C 474.63 113.91 465.25 115.05 457.99 120.05 C 449.01 126.19 446.10 137.72 446.44 148.05 C 446.44 165.72 446.44 183.39 446.44 201.06 C 438.14 201.06 429.85 201.06 421.56 201.06 C 421.56 165.43 421.55 129.81 421.57 94.18 C 429.52 94.19 437.48 94.19 445.43 94.18 C 445.43 98.71 445.46 103.23 445.41 107.76 Z" />
<path fill="#ffffff" opacity="1.00" d=" M 833.60 93.77 C 848.48 91.30 864.54 93.26 877.48 101.37 C 889.50 108.68 898.43 121.00 901.17 134.84 C 903.93 148.92 902.35 164.31 894.67 176.66 C 886.62 189.95 872.34 198.88 857.13 201.45 C 843.49 203.71 828.91 202.20 816.65 195.53 C 803.82 188.74 793.96 176.49 790.38 162.40 C 787.44 150.36 787.96 137.30 792.65 125.77 C 799.57 108.96 815.78 96.74 833.60 93.77 M 839.58 114.74 C 829.22 116.34 820.10 123.75 816.33 133.53 C 811.67 146.01 813.28 161.43 822.46 171.50 C 834.29 184.58 857.53 184.41 869.09 171.07 C 876.40 162.69 878.37 150.79 876.53 140.07 C 875.20 132.07 870.82 124.48 864.11 119.83 C 857.08 114.84 847.99 113.33 839.58 114.74 Z" />
<path fill="#ffffff" opacity="1.00" d=" M 962.57 93.78 C 977.45 91.29 993.52 93.25 1006.46 101.36 C 1018.48 108.66 1027.42 120.98 1030.16 134.82 C 1032.83 148.43 1031.47 163.25 1024.43 175.39 C 1016.74 188.94 1002.66 198.28 987.47 201.20 C 976.10 203.32 964.10 202.80 953.17 198.89 C 941.06 194.55 930.48 185.88 924.26 174.57 C 916.93 161.48 915.87 145.42 919.79 131.09 C 925.22 111.71 942.90 97.01 962.57 93.78 M 968.58 114.74 C 957.72 116.40 948.30 124.47 944.83 134.86 C 940.69 147.53 942.74 162.93 952.48 172.55 C 964.59 184.59 986.88 184.03 998.11 171.05 C 1005.39 162.69 1007.35 150.84 1005.55 140.16 C 1004.23 132.10 999.82 124.46 993.06 119.80 C 986.03 114.83 976.96 113.34 968.58 114.74 Z" />
<path fill="#ffffff" opacity="1.00" d=" M 283.37 94.19 C 291.79 94.18 300.21 94.18 308.63 94.19 C 308.62 112.47 308.64 130.74 308.62 149.02 C 308.53 156.00 308.96 163.35 312.51 169.54 C 315.64 175.17 321.58 178.89 327.88 179.88 C 335.89 181.16 344.62 179.99 351.38 175.26 C 357.09 171.23 360.55 164.64 361.86 157.89 C 363.03 152.32 362.71 146.61 362.75 140.96 C 362.75 125.37 362.75 109.78 362.75 94.18 C 371.10 94.18 379.46 94.18 387.81 94.18 C 387.82 129.81 387.81 165.44 387.82 201.06 C 379.88 201.06 371.94 201.06 364.00 201.06 C 364.00 196.53 363.99 192.00 364.01 187.47 C 356.15 196.79 344.06 201.90 332.01 202.37 C 321.60 202.77 310.78 200.87 301.87 195.24 C 293.63 190.04 287.87 181.43 285.41 172.08 C 283.81 166.21 283.35 160.10 283.37 154.04 C 283.37 134.09 283.37 114.14 283.37 94.19 Z" />
<path fill="#ffffff" opacity="1.00" d=" M 558.56 94.18 C 566.85 94.18 575.14 94.19 583.44 94.18 C 583.44 129.81 583.44 165.44 583.44 201.06 C 575.14 201.06 566.85 201.06 558.56 201.06 C 558.56 165.44 558.56 129.81 558.56 94.18 Z" />
<path fill="#ffffff" opacity="1.00" d=" M 600.75 94.19 C 608.65 94.19 616.55 94.17 624.46 94.20 C 633.80 120.39 643.29 146.52 652.58 172.73 C 662.43 146.57 672.16 120.36 681.96 94.18 C 688.99 94.18 696.01 94.18 703.04 94.18 C 712.62 120.44 722.23 146.68 731.78 172.94 C 741.54 146.72 751.08 120.43 760.76 94.18 C 768.19 94.18 775.61 94.19 783.04 94.18 C 769.96 129.79 756.73 165.34 743.69 200.97 C 735.61 201.10 727.52 201.17 719.45 200.93 C 710.49 176.33 701.20 151.86 692.18 127.28 C 682.74 151.85 673.42 176.47 664.02 201.06 C 656.00 201.06 647.99 201.06 639.98 201.06 C 626.90 165.44 613.82 129.81 600.75 94.19 Z" />
</g>
<g id="#a4a4a445">
<path fill="#a4a4a4" opacity="0.27" d=" M 107.98 33.91 C 111.46 39.31 111.21 45.87 111.21 52.04 C 111.17 77.36 111.23 102.68 111.18 128.00 C 111.27 131.19 110.90 134.59 112.56 137.48 C 112.18 143.28 114.92 148.97 115.82 154.60 C 115.56 154.53 115.03 154.39 114.77 154.32 C 115.01 151.02 113.75 148.00 112.25 145.16 C 111.37 137.46 110.02 129.77 110.37 121.99 C 110.48 98.32 110.35 74.65 110.43 50.98 C 110.47 47.72 110.20 44.46 109.74 41.23 C 109.06 38.82 108.68 36.32 107.98 33.91 Z" />
</g>
</svg>
