<?xml version="1.0" encoding="UTF-8"?>
<svg id="Camada_1" xmlns="http://www.w3.org/2000/svg" version="1.1" viewBox="0 0 1145 243">
  <!-- Generator: Adobe Illustrator 30.0.0, SVG Export Plug-In . SVG Version: 2.1.1 Build 123)  -->
  <defs>
    <style>
      .st0 {
        isolation: isolate;
        opacity: .27;
      }
    </style>
  </defs>
  <g id="_x23_ffffffff">
    <path d="M34.21,37.07c-.33-8.93,7.68-17.57,16.78-17.03,10.7.03,21.41-.03,32.12.03,4.12.22,8.42.01,12.3,1.67,5.51,2.27,10.22,6.67,12.57,12.17.7,2.41,1.08,4.91,1.76,7.32.46,3.23.73,6.49.69,9.75-.08,23.67.05,47.34-.06,71.01-.35,7.78,1,15.47,1.88,23.17,1.5,2.84,2.76,5.86,2.52,9.16.26.07.79.21,1.05.28l.32.08c6.67,19.23,23.34,33.66,41.67,41.54,5.63,2.02,11.38,3.77,17.31,4.63,9.87,1.43,20.24,1.68,29.85-1.37-1.21,2.22-3.33,3.65-5.21,5.23-11.47,9.92-25.18,17.38-39.9,21.12-3.81,1.21-7.81,1.48-11.68,2.36-10.42.86-20.94.77-31.26-1.01-4.29-1.02-8.64-1.85-12.8-3.34-.98-.34-1.97-.69-2.95-1.03-1.69-.6-3.36-1.26-5.02-1.94-23.36-9.93-42.55-28.98-53.18-51.97-3.24-7.3-5.44-15.01-7.14-22.8-.69-5.03-1.7-10.03-1.59-15.13-.07-31.3-.01-62.6-.03-93.9Z"/>
    <path d="M159,20.92c2.61-.6,5.28-.89,7.96-.88,13.33-.01,26.66,0,39.99-.01,3.04-.01,6.1.16,9.07.85,5.96,2.59,10.88,8.37,10.9,15.08.08,30.03,0,60.06.04,90.1-.01,3.62.09,7.33-1.1,10.81-.7,2.47-1.63,4.87-2.64,7.23-5.33,10.15-14.81,18.42-26.08,21.1-6.09,1.31-12.26,1.4-18.34.03-1.99-.68-3.99-1.33-5.99-1.98-13.13-5-22.71-17.35-25-31.13-.27-2.03-.51-4.07-.49-6.12.04-29.34,0-58.68.02-88.02.3-7.34,4.93-14.11,11.66-17.06Z"/>
    <path d="M566.14,47.17c7.73-2.2,17.56,1.14,20.17,9.26,2.92,8.27-2.57,18.33-11.33,19.8-7.85,1.95-17.14-2.25-19.38-10.33-2.65-7.83,2.61-16.82,10.54-18.73Z"/>
    <path d="M1058.75,70.56c8.29,0,16.57.01,24.87,0,.02,7.87,0,15.75.01,23.62,9.6,0,19.2.01,28.8,0,0,6.69,0,13.38,0,20.07-9.6,0-19.2.01-28.8-.01,0,17.58-.07,35.16.03,52.73-.01,5.62,2.97,11.58,8.46,13.62,6.72,2.41,14.61,1.09,20.33-3.17,2.4,5.95,4.81,11.91,7.21,17.87-9.65,6.99-22.33,8.23-33.8,6.33-8.25-1.34-16.32-5.48-21.11-12.49-4.71-6.71-6-15.13-6-23.15-.03-17.24-.01-34.49-.01-51.73h-17.57c0-6.69,0-13.38,0-20.06,5.85-.01,11.7,0,17.56-.01-.01-7.87,0-15.74,0-23.62Z"/>
    <path d="M445.41,107.76c8.05-9.48,20.47-14.27,32.69-14.87,12.23-.76,25.41,1.87,34.73,10.3,9.47,8.42,13.55,21.31,13.73,33.7.17,21.36-.01,42.73.1,64.09-8.37.18-16.73.04-25.1.08v-51.06c.02-7.77.39-15.97-3.16-23.13-2.78-6.04-8.79-10.15-15.24-11.36-8.53-1.6-17.91-.46-25.17,4.54-8.98,6.14-11.89,17.67-11.55,28v53.01h-24.88c0-35.63-.01-71.25.01-106.88,7.95.01,15.91.01,23.86,0,0,4.53.03,9.05-.02,13.58Z"/>
    <path d="M833.6,93.77c14.88-2.47,30.94-.51,43.88,7.6,12.02,7.31,20.95,19.63,23.69,33.47,2.76,14.08,1.18,29.47-6.5,41.82-8.05,13.29-22.33,22.22-37.54,24.79-13.64,2.26-28.22.75-40.48-5.92-12.83-6.79-22.69-19.04-26.27-33.13-2.94-12.04-2.42-25.1,2.27-36.63,6.92-16.81,23.13-29.03,40.95-32M839.58,114.74c-10.36,1.6-19.48,9.01-23.25,18.79-4.66,12.48-3.05,27.9,6.13,37.97,11.83,13.08,35.07,12.91,46.63-.43,7.31-8.38,9.28-20.28,7.44-31-1.33-8-5.71-15.59-12.42-20.24-7.03-4.99-16.12-6.5-24.53-5.09Z"/>
    <path d="M962.57,93.78c14.88-2.49,30.95-.53,43.89,7.58,12.02,7.3,20.96,19.62,23.7,33.46,2.67,13.61,1.31,28.43-5.73,40.57-7.69,13.55-21.77,22.89-36.96,25.81-11.37,2.12-23.37,1.6-34.3-2.31-12.11-4.34-22.69-13.01-28.91-24.32-7.33-13.09-8.39-29.15-4.47-43.48,5.43-19.38,23.11-34.08,42.78-37.31M968.58,114.74c-10.86,1.66-20.28,9.73-23.75,20.12-4.14,12.67-2.09,28.07,7.65,37.69,12.11,12.04,34.4,11.48,45.63-1.5,7.28-8.36,9.24-20.21,7.44-30.89-1.32-8.06-5.73-15.7-12.49-20.36-7.03-4.97-16.1-6.46-24.48-5.06Z"/>
    <path d="M283.37,94.19c8.42-.01,16.84-.01,25.26,0-.01,18.28.01,36.55-.01,54.83-.09,6.98.34,14.33,3.89,20.52,3.13,5.63,9.07,9.35,15.37,10.34,8.01,1.28,16.74.11,23.5-4.62,5.71-4.03,9.17-10.62,10.48-17.37,1.17-5.57.85-11.28.89-16.93v-46.78h25.06c.01,35.63,0,71.26.01,106.88h-23.82c0-4.53-.01-9.06.01-13.59-7.86,9.32-19.95,14.43-32,14.9-10.41.4-21.23-1.5-30.14-7.13-8.24-5.2-14-13.81-16.46-23.16-1.6-5.87-2.06-11.98-2.04-18.04v-59.85Z"/>
    <path d="M558.56,94.18c8.29,0,16.58.01,24.88,0v106.88h-24.88v-106.88Z"/>
    <path d="M600.75,94.19c7.9,0,15.8-.02,23.71,0,9.34,26.19,18.83,52.32,28.12,78.53,9.85-26.16,19.58-52.37,29.38-78.55h21.08c9.58,26.26,19.19,52.5,28.74,78.76,9.76-26.22,19.3-52.51,28.98-78.76,7.43,0,14.85.01,22.28,0-13.08,35.61-26.31,71.16-39.35,106.79-8.08.13-16.17.2-24.24-.04-8.96-24.6-18.25-49.07-27.27-73.65-9.44,24.57-18.76,49.19-28.16,73.78h-24.04c-13.08-35.62-26.16-71.25-39.23-106.87Z"/>
  </g>
  <g id="_x23_a4a4a445">
    <path class="st0" d="M107.98,33.91c3.48,5.4,3.23,11.96,3.23,18.13-.04,25.32.02,50.64-.03,75.96.09,3.19-.28,6.59,1.38,9.48-.38,5.8,2.36,11.49,3.26,17.12-.26-.07-.79-.21-1.05-.28.24-3.3-1.02-6.32-2.52-9.16-.88-7.7-2.23-15.39-1.88-23.17.11-23.67-.02-47.34.06-71.01.04-3.26-.23-6.52-.69-9.75-.68-2.41-1.06-4.91-1.76-7.32Z"/>
  </g>
</svg>